<svg xmlns="http://www.w3.org/2000/svg" xmlns:xlink="http://www.w3.org/1999/xlink" width="2000" zoomAndPan="magnify" viewBox="0 0 1500 1499.999933" height="2000" preserveAspectRatio="xMidYMid meet" version="1.0"><defs><g/><clipPath id="7beeb8d67c"><path d="M 479 190.746094 L 1021 190.746094 L 1021 1044.246094 L 479 1044.246094 Z M 479 190.746094 " clip-rule="nonzero"/></clipPath><clipPath id="1b552cbbdf"><path d="M 526.464844 354.683594 L 973.535156 354.683594 L 973.535156 602.277344 L 526.464844 602.277344 Z M 526.464844 354.683594 " clip-rule="nonzero"/></clipPath><clipPath id="e49ed07f68"><path d="M 0.464844 0.683594 L 447.535156 0.683594 L 447.535156 248.277344 L 0.464844 248.277344 Z M 0.464844 0.683594 " clip-rule="nonzero"/></clipPath><clipPath id="ca892125ae"><rect x="0" width="448" y="0" height="249"/></clipPath><clipPath id="235cfb0e77"><path d="M 552.617188 379.789062 L 947.117188 379.789062 L 947.117188 577.039062 L 552.617188 577.039062 Z M 552.617188 379.789062 " clip-rule="nonzero"/></clipPath><clipPath id="aacbb8191d"><rect x="0" width="248" y="0" height="237"/></clipPath></defs><path fill="#ffffff" d="M 1005.261719 329.753906 L 1037.265625 329.753906 C 1050.265625 329.753906 1061.765625 335.253906 1070.265625 343.753906 C 1078.765625 352.253906 1084.265625 363.753906 1084.265625 376.753906 L 1084.265625 449.261719 C 1084.265625 462.261719 1078.765625 473.761719 1070.265625 482.261719 C 1061.765625 490.761719 1050.265625 496.261719 1037.265625 496.261719 L 1005.261719 496.261719 C 997.261719 496.261719 990.261719 489.261719 990.261719 481.261719 L 990.261719 344.753906 C 990.261719 336.753906 997.261719 329.753906 1005.261719 329.753906 Z M 1005.261719 329.753906 " fill-opacity="1" fill-rule="nonzero"/><path fill="#ffffff" d="M 1005.261719 528.265625 L 1037.265625 528.265625 C 1050.265625 528.265625 1061.765625 533.265625 1070.265625 541.765625 C 1078.765625 550.265625 1084.265625 562.265625 1084.265625 574.765625 L 1084.265625 647.269531 C 1084.265625 660.269531 1078.765625 672.273438 1070.265625 680.773438 C 1061.765625 689.273438 1050.265625 694.273438 1037.265625 694.273438 L 1005.261719 694.273438 C 997.261719 694.273438 990.261719 687.773438 990.261719 679.273438 L 990.261719 543.265625 C 990.261719 534.765625 997.261719 528.265625 1005.261719 528.265625 Z M 1005.261719 528.265625 " fill-opacity="1" fill-rule="nonzero"/><path fill="#ffffff" d="M 462.734375 534.265625 L 494.234375 534.265625 C 502.734375 534.265625 509.234375 540.765625 509.234375 549.265625 L 509.234375 685.773438 C 509.234375 693.773438 502.734375 700.773438 494.234375 700.773438 L 462.734375 700.773438 C 449.734375 700.773438 437.730469 695.273438 429.230469 686.773438 C 420.730469 678.273438 415.730469 666.773438 415.730469 653.769531 L 415.730469 581.265625 C 415.730469 568.265625 420.730469 556.765625 429.230469 548.265625 C 437.730469 539.765625 449.734375 534.265625 462.734375 534.265625 Z M 462.734375 534.265625 " fill-opacity="1" fill-rule="nonzero"/><g clip-path="url(#7beeb8d67c)"><path fill="#141e2e" d="M 479.234375 280.25 C 479.234375 256.25 488.234375 233.746094 502.734375 217.746094 C 517.734375 201.246094 538.238281 190.746094 560.738281 190.746094 L 939.257812 190.746094 C 961.761719 190.746094 982.261719 201.246094 997.261719 217.746094 C 1011.261719 233.746094 1020.265625 255.75 1020.265625 280.25 L 1020.265625 954.789062 C 1020.265625 978.789062 1011.261719 1001.289062 997.261719 1017.289062 C 982.261719 1033.792969 961.761719 1044.292969 939.257812 1044.292969 L 560.738281 1044.292969 C 538.238281 1044.292969 517.734375 1033.792969 502.734375 1017.289062 C 488.234375 1001.289062 479.234375 978.789062 479.234375 954.789062 Z M 479.234375 280.25 " fill-opacity="1" fill-rule="nonzero"/></g><path fill="#ffffff" d="M 990.261719 892.285156 L 990.261719 342.253906 L 509.234375 342.253906 L 509.234375 892.285156 Z M 990.261719 892.285156 " fill-opacity="1" fill-rule="nonzero"/><path fill="#ffffff" d="M 923.757812 251.75 L 930.757812 251.75 L 930.757812 281.75 L 923.757812 281.75 Z M 923.757812 251.75 " fill-opacity="1" fill-rule="nonzero"/><path fill="#ffffff" d="M 857.253906 251.75 L 864.253906 251.75 L 864.253906 281.75 L 857.253906 281.75 Z M 857.253906 251.75 " fill-opacity="1" fill-rule="nonzero"/><path fill="#ffffff" d="M 712.746094 251.75 L 797.75 251.75 L 797.75 281.75 L 712.746094 281.75 Z M 712.746094 251.75 " fill-opacity="1" fill-rule="nonzero"/><path fill="#ffffff" d="M 674.246094 953.289062 L 868.253906 953.289062 L 868.253906 983.289062 L 674.246094 983.289062 Z M 674.246094 953.289062 " fill-opacity="1" fill-rule="nonzero"/><path fill="#5c9cee" d="M 589.238281 373.753906 L 910.757812 373.753906 C 920.757812 373.753906 930.257812 377.757812 937.257812 384.757812 C 944.257812 391.757812 948.761719 401.257812 948.761719 411.757812 L 948.761719 520.765625 C 948.761719 531.265625 944.257812 540.765625 937.257812 547.765625 C 937.257812 547.765625 936.757812 548.265625 936.257812 548.765625 C 929.257812 554.765625 920.257812 558.765625 910.757812 558.765625 L 801.75 558.765625 L 721.246094 603.769531 C 714.246094 608.269531 704.746094 605.269531 700.746094 598.269531 C 700.246094 597.269531 699.746094 596.269531 699.746094 595.269531 L 686.246094 558.765625 L 589.238281 558.765625 C 578.738281 558.765625 569.238281 554.265625 562.738281 547.265625 L 562.238281 547.765625 C 555.738281 540.765625 551.238281 531.265625 551.238281 520.765625 L 551.238281 411.757812 C 551.238281 401.257812 555.738281 391.757812 562.238281 384.757812 L 562.738281 384.757812 C 569.238281 377.757812 578.738281 373.753906 589.238281 373.753906 Z M 589.238281 373.753906 " fill-opacity="1" fill-rule="nonzero"/><path fill="#5c9cee" d="M 589.238281 628.769531 L 910.757812 628.769531 C 920.257812 628.769531 929.257812 632.769531 936.257812 639.269531 C 936.757812 639.269531 937.257812 639.769531 937.257812 640.269531 C 944.257812 646.769531 948.761719 656.269531 948.761719 666.773438 L 948.761719 775.777344 C 948.761719 786.277344 944.257812 795.777344 937.257812 802.777344 C 930.257812 809.78125 920.757812 813.78125 910.757812 813.78125 L 813.753906 813.78125 L 800.25 850.28125 C 799.75 851.28125 799.75 852.28125 798.75 853.28125 C 794.75 860.78125 785.75 863.28125 778.75 859.28125 L 698.246094 813.78125 L 589.238281 813.78125 C 578.738281 813.78125 569.238281 809.78125 562.738281 802.777344 L 562.238281 802.777344 C 555.738281 795.777344 551.238281 786.277344 551.238281 775.777344 L 551.238281 666.773438 C 551.238281 656.269531 555.738281 646.769531 562.238281 640.269531 L 562.738281 640.269531 C 569.238281 633.269531 578.738281 628.769531 589.238281 628.769531 Z M 589.238281 628.769531 " fill-opacity="1" fill-rule="nonzero"/><path fill="#ffffff" d="M 623.742188 481.261719 C 615.242188 481.261719 608.742188 474.261719 608.742188 466.261719 C 608.742188 457.761719 615.242188 451.261719 623.742188 451.261719 L 886.757812 451.261719 C 895.257812 451.261719 901.757812 457.761719 901.757812 466.261719 C 901.757812 474.261719 895.257812 481.261719 886.757812 481.261719 Z M 623.742188 481.261719 " fill-opacity="1" fill-rule="nonzero"/><path fill="#ffffff" d="M 618.242188 736.277344 C 610.242188 736.277344 603.242188 729.773438 603.242188 721.273438 C 603.242188 713.273438 610.242188 706.273438 618.242188 706.273438 L 881.257812 706.273438 C 889.757812 706.273438 896.257812 713.273438 896.257812 721.273438 C 896.257812 729.773438 889.757812 736.277344 881.257812 736.277344 Z M 618.242188 736.277344 " fill-opacity="1" fill-rule="nonzero"/><g clip-path="url(#1b552cbbdf)"><g transform="matrix(1, 0, 0, 1, 526, 354)"><g clip-path="url(#ca892125ae)"><g clip-path="url(#e49ed07f68)"><path fill="#ffffff" d="M 0.464844 0.683594 L 447.292969 0.683594 L 447.292969 248.277344 L 0.464844 248.277344 Z M 0.464844 0.683594 " fill-opacity="1" fill-rule="nonzero"/></g></g></g></g><g clip-path="url(#235cfb0e77)"><path fill="#5c9cee" d="M 903.511719 379.789062 L 596.476562 379.789062 C 572.234375 379.789062 552.617188 399.429688 552.617188 423.648438 L 552.617188 533.304688 C 552.617188 557.519531 572.234375 577.167969 596.476562 577.167969 L 903.511719 577.167969 C 927.753906 577.167969 947.375 557.519531 947.375 533.304688 L 947.375 423.648438 C 947.375 399.429688 927.753906 379.789062 903.511719 379.789062 Z M 942.988281 533.304688 C 942.988281 555.109375 925.332031 572.78125 903.511719 572.78125 L 596.476562 572.78125 C 574.65625 572.78125 557.003906 555.109375 557.003906 533.304688 L 557.003906 423.648438 C 557.003906 401.847656 574.65625 384.175781 596.476562 384.175781 L 903.511719 384.175781 C 925.332031 384.175781 942.988281 401.847656 942.988281 423.648438 Z M 942.988281 533.304688 " fill-opacity="1" fill-rule="nonzero"/></g><g transform="matrix(1, 0, 0, 1, 626, 360)"><g clip-path="url(#aacbb8191d)"><g fill="#141e2e" fill-opacity="1"><g transform="translate(1.022245, 190.69505)"><g><path d="M 2.265625 -141.75 C 2.265625 -142.4375 5.253906 -143.085938 11.234375 -143.703125 C 17.222656 -144.328125 22.144531 -144.640625 26 -144.640625 C 41.269531 -144.640625 49.25 -142.644531 49.9375 -138.65625 L 67.671875 -47.875 L 84.390625 -138.65625 C 85.210938 -142.644531 93.738281 -144.640625 109.96875 -144.640625 C 113.957031 -144.640625 118.976562 -144.363281 125.03125 -143.8125 C 131.082031 -143.257812 134.109375 -142.640625 134.109375 -141.953125 L 97.59375 -5.359375 C 97.039062 -3.160156 92.984375 -1.71875 85.421875 -1.03125 C 73.722656 0.207031 63.09375 0.453125 53.53125 -0.296875 C 43.976562 -1.054688 38.925781 -2.398438 38.375 -4.328125 Z M 2.265625 -141.75 "/></g></g></g><g fill="#5c9cee" fill-opacity="1"><g transform="translate(137.413397, 190.69505)"><g><path d="M 15.6875 -50.34375 C 18.289062 -48.28125 22.789062 -45.457031 29.1875 -41.875 C 35.59375 -38.300781 41.71875 -36.515625 47.5625 -36.515625 C 53.40625 -36.515625 56.328125 -38.785156 56.328125 -43.328125 C 56.328125 -45.390625 55.5 -47.210938 53.84375 -48.796875 C 52.195312 -50.378906 49.171875 -52.203125 44.765625 -54.265625 C 40.367188 -56.328125 37.066406 -57.941406 34.859375 -59.109375 C 32.660156 -60.273438 29.738281 -62.195312 26.09375 -64.875 C 22.457031 -67.5625 19.675781 -70.351562 17.75 -73.25 C 12.238281 -81.082031 9.484375 -91.050781 9.484375 -103.15625 C 9.484375 -115.269531 13.988281 -125.484375 23 -133.796875 C 32.007812 -142.117188 43.804688 -146.28125 58.390625 -146.28125 C 68.296875 -146.28125 77.441406 -145.210938 85.828125 -143.078125 C 94.222656 -140.953125 98.554688 -138.171875 98.828125 -134.734375 C 98.828125 -134.316406 98.828125 -133.90625 98.828125 -133.5 C 98.828125 -128.675781 97.3125 -122.585938 94.28125 -115.234375 C 91.257812 -107.878906 89.128906 -103.785156 87.890625 -102.953125 C 79.085938 -107.492188 71.210938 -109.765625 64.265625 -109.765625 C 57.328125 -109.765625 53.859375 -107.289062 53.859375 -102.34375 C 53.859375 -99.3125 56.398438 -96.628906 61.484375 -94.296875 C 62.585938 -93.742188 64.171875 -92.984375 66.234375 -92.015625 C 68.296875 -91.054688 70.664062 -89.921875 73.34375 -88.609375 C 76.03125 -87.304688 78.921875 -85.65625 82.015625 -83.65625 C 85.109375 -81.664062 88.441406 -79.019531 92.015625 -75.71875 C 99.304688 -68.84375 102.953125 -59.765625 102.953125 -48.484375 C 102.953125 -33.765625 98.894531 -21.726562 90.78125 -12.375 C 82.664062 -3.019531 70.148438 1.789062 53.234375 2.0625 C 44.984375 2.0625 37.519531 1.375 30.84375 0 C 24.175781 -1.375 18.363281 -4.054688 13.40625 -8.046875 C 8.457031 -12.035156 5.984375 -16.847656 5.984375 -22.484375 C 5.984375 -28.128906 7.015625 -33.734375 9.078125 -39.296875 C 11.140625 -44.867188 13.34375 -48.550781 15.6875 -50.34375 Z M 15.6875 -50.34375 "/></g></g></g></g></g><g fill="#141e2e" fill-opacity="1"><g transform="translate(279.433603, 1222.794475)"><g><path d="M 50.59375 -139.402344 C 56.257812 -134.929688 66.546875 -128.523438 81.46875 -120.179688 C 94.375 -112.964844 106.390625 -109.355469 117.511719 -109.355469 C 119.503906 -109.355469 121.066406 -109.503906 122.203125 -109.796875 C 122.425781 -109.855469 122.574219 -109.902344 122.644531 -109.933594 C 122.472656 -109.855469 122.269531 -109.722656 122.039062 -109.542969 C 121.246094 -108.929688 120.652344 -108.164062 120.257812 -107.242188 C 120.144531 -106.980469 120.074219 -106.757812 120.039062 -106.578125 C 120.054688 -106.660156 120.0625 -106.824219 120.0625 -107.0625 C 120.0625 -106.859375 120.121094 -106.632812 120.234375 -106.378906 C 120.261719 -106.316406 120.277344 -106.285156 120.277344 -106.285156 C 120.183594 -106.417969 120.035156 -106.578125 119.835938 -106.769531 C 117.269531 -109.226562 111.496094 -112.5625 102.515625 -116.773438 C 91.351562 -122.003906 82.910156 -126.140625 77.191406 -129.179688 C 70.929688 -132.507812 62.917969 -137.757812 53.160156 -144.941406 C 42.347656 -152.898438 33.941406 -161.378906 27.9375 -170.382812 L 43.84375 -180.984375 L 28.195312 -170.003906 C 12.289062 -192.671875 4.332031 -220.976562 4.332031 -254.910156 C 4.332031 -290.398438 17.511719 -320.316406 43.871094 -344.664062 C 69.796875 -368.609375 103.265625 -380.582031 144.277344 -380.582031 C 170.34375 -380.582031 194.515625 -377.75 216.792969 -372.089844 C 229.167969 -368.945312 238.90625 -365.089844 246.003906 -360.527344 C 256.664062 -353.675781 262.417969 -344.976562 263.261719 -334.4375 L 263.320312 -333.675781 L 263.320312 -329.855469 C 263.320312 -315.4375 259.105469 -297.976562 250.667969 -277.464844 C 246.710938 -267.839844 243.285156 -260.246094 240.382812 -254.679688 C 236.238281 -246.722656 232.039062 -241.328125 227.789062 -238.492188 L 218.425781 -232.25 L 208.421875 -237.40625 C 189.417969 -247.207031 172.878906 -252.105469 158.808594 -252.105469 C 156.011719 -252.105469 153.730469 -251.894531 151.964844 -251.476562 C 151.417969 -251.347656 150.976562 -251.210938 150.636719 -251.066406 L 150.597656 -251.066406 C 151.179688 -251.484375 151.644531 -252.0625 151.992188 -252.800781 C 152.105469 -253.046875 152.175781 -253.25 152.210938 -253.414062 C 152.191406 -253.316406 152.179688 -253.136719 152.179688 -252.871094 C 152.179688 -253.714844 152.023438 -254.492188 151.703125 -255.207031 C 151.617188 -255.398438 151.535156 -255.554688 151.457031 -255.667969 C 151.480469 -255.632812 151.546875 -255.558594 151.648438 -255.449219 C 153.101562 -253.917969 155.855469 -252.222656 159.910156 -250.359375 L 160.195312 -250.230469 L 160.476562 -250.085938 C 163.042969 -248.804688 166.792969 -247.011719 171.738281 -244.703125 C 176.933594 -242.28125 182.890625 -239.429688 189.613281 -236.15625 C 196.925781 -232.59375 204.722656 -228.140625 213.011719 -222.800781 C 221.585938 -217.277344 230.699219 -210.058594 240.347656 -201.152344 C 262.460938 -180.289062 273.519531 -153.175781 273.519531 -119.808594 C 273.519531 -78.683594 261.933594 -44.765625 238.761719 -18.058594 C 214.980469 9.351562 179.339844 23.441406 131.84375 24.214844 C 109.945312 24.214844 90.113281 22.386719 72.355469 18.722656 C 52.851562 14.703125 35.78125 6.796875 21.144531 -4.996094 C 4.160156 -18.675781 -4.332031 -35.535156 -4.332031 -55.570312 C -4.332031 -71.789062 -1.386719 -87.851562 4.503906 -103.761719 C 10.882812 -120.984375 18.425781 -132.925781 27.132812 -139.582031 L 38.933594 -148.605469 Z M 26.898438 -109.390625 L 38.746094 -124.394531 L 50.359375 -109.210938 C 49.414062 -108.484375 48.207031 -106.898438 46.742188 -104.449219 C 44.628906 -100.914062 42.5 -96.257812 40.359375 -90.480469 C 36.054688 -78.859375 33.902344 -67.222656 33.902344 -55.570312 C 33.902344 -47.734375 37.644531 -40.800781 45.132812 -34.769531 C 54.964844 -26.847656 66.613281 -21.5 80.078125 -18.722656 C 95.289062 -15.589844 112.335938 -14.019531 131.222656 -14.019531 C 167.335938 -14.605469 193.558594 -24.304688 209.878906 -43.117188 C 226.816406 -62.636719 235.28125 -88.199219 235.28125 -119.808594 C 235.28125 -142.179688 228.324219 -159.929688 214.414062 -173.054688 C 206.386719 -180.464844 199.015625 -186.332031 192.296875 -190.660156 C 185.289062 -195.179688 178.8125 -198.882812 172.867188 -201.78125 C 166.335938 -204.960938 160.570312 -207.722656 155.566406 -210.054688 C 150.3125 -212.507812 146.25 -214.453125 143.375 -215.886719 L 151.925781 -232.988281 L 143.945312 -215.617188 C 123.945312 -224.804688 113.945312 -237.222656 113.945312 -252.871094 C 113.945312 -258.761719 115.082031 -264.136719 117.355469 -269 C 119.84375 -274.328125 123.527344 -278.730469 128.402344 -282.203125 C 136.011719 -287.628906 146.148438 -290.34375 158.808594 -290.34375 C 179.066406 -290.34375 201.445312 -284.027344 225.945312 -271.390625 L 217.183594 -254.398438 L 206.578125 -270.308594 C 205.597656 -269.65625 204.789062 -268.96875 204.152344 -268.253906 L 204.121094 -268.25 C 204.726562 -269.136719 205.511719 -270.5 206.472656 -272.347656 C 208.84375 -276.894531 211.785156 -283.445312 215.304688 -292.003906 C 221.824219 -307.859375 225.085938 -320.476562 225.085938 -329.855469 L 225.085938 -332.914062 L 244.203125 -332.914062 L 225.144531 -331.386719 C 225.265625 -329.875 225.703125 -328.617188 226.449219 -327.605469 L 226.511719 -327.5 C 226.226562 -327.75 225.832031 -328.039062 225.324219 -328.363281 C 221.714844 -330.683594 215.734375 -332.90625 207.375 -335.03125 C 188.1875 -339.90625 167.15625 -342.34375 144.277344 -342.34375 C 113.238281 -342.34375 88.417969 -333.753906 69.816406 -316.574219 C 51.652344 -299.796875 42.570312 -279.242188 42.570312 -254.910156 C 42.570312 -229.027344 48.210938 -208.046875 59.492188 -191.96875 L 59.625 -191.78125 L 59.75 -191.589844 C 63.265625 -186.320312 68.625 -181.035156 75.824219 -175.738281 C 84.078125 -169.660156 90.515625 -165.398438 95.128906 -162.945312 C 100.285156 -160.207031 108.15625 -156.355469 118.746094 -151.394531 C 131.519531 -145.40625 140.699219 -139.734375 146.292969 -134.375 C 154.296875 -126.703125 158.300781 -117.597656 158.300781 -107.0625 C 158.300781 -95.214844 154.027344 -85.972656 145.488281 -79.34375 C 138.429688 -73.859375 129.101562 -71.121094 117.511719 -71.121094 C 99.746094 -71.121094 81.511719 -76.347656 62.808594 -86.804688 C 46.121094 -96.136719 34.152344 -103.664062 26.898438 -109.390625 Z M 26.898438 -109.390625 "/></g></g></g><g fill="#141e2e" fill-opacity="1"><g transform="translate(529.244901, 1222.794475)"><g><path d="M 382.363281 19.628906 C 365.824219 19.628906 353.085938 18.625 344.144531 16.613281 C 338.019531 15.238281 333.019531 13.242188 329.140625 10.625 C 325.988281 8.503906 323.464844 5.949219 321.566406 2.960938 C 319.105469 -0.914062 317.871094 -5.128906 317.871094 -9.6875 L 336.992188 -9.6875 L 317.898438 -8.6875 L 307.191406 -213.125 L 326.285156 -214.125 L 344.59375 -208.621094 L 282.3125 -1.363281 L 282.222656 -1.089844 C 279.144531 8.148438 270.976562 13.9375 257.722656 16.277344 C 250.84375 17.492188 241.410156 18.097656 229.417969 18.097656 C 217.488281 18.097656 208.199219 17.542969 201.550781 16.4375 C 187.101562 14.027344 178.902344 7.480469 176.960938 -3.207031 L 195.769531 -6.628906 L 177.492188 -1.023438 L 113.253906 -210.558594 L 131.535156 -216.164062 L 150.640625 -215.492188 L 143.492188 -11.773438 L 143.472656 -11.472656 C 142.449219 3.875 130.570312 13.238281 107.832031 16.617188 C 94.328125 18.625 82.9375 19.628906 73.667969 19.628906 C 64.515625 19.628906 55.617188 19.066406 46.980469 17.9375 C 18.941406 13.851562 5.414062 2.929688 6.402344 -14.824219 L 18.109375 -345.824219 L 37.21875 -345.148438 L 18.097656 -345.148438 C 18.097656 -359.710938 28.425781 -369.019531 49.074219 -373.082031 C 60.660156 -375.363281 77.441406 -376.503906 99.414062 -376.503906 C 112.324219 -376.503906 127.949219 -375.53125 146.289062 -373.59375 C 156.71875 -372.488281 165.144531 -370.746094 171.570312 -368.363281 C 181.960938 -364.511719 188.6875 -358.503906 191.75 -350.332031 L 248.960938 -189.429688 L 230.949219 -183.023438 L 212.6875 -188.6875 L 262.742188 -350.089844 L 262.84375 -350.382812 C 265.308594 -357.5 270.519531 -363.046875 278.480469 -367.027344 C 283.382812 -369.480469 289.640625 -371.421875 297.253906 -372.859375 C 310.148438 -375.289062 328.152344 -376.503906 351.265625 -376.503906 C 364.519531 -376.503906 380.238281 -375.53125 398.414062 -373.589844 C 408.796875 -372.480469 416.9375 -370.808594 422.847656 -368.570312 C 427.347656 -366.867188 431.050781 -364.675781 433.960938 -361.988281 C 439.160156 -357.195312 441.757812 -351.410156 441.757812 -344.636719 L 422.640625 -344.636719 L 441.742188 -345.484375 L 456.542969 -10.617188 L 456.542969 -10.195312 C 456.542969 -3.886719 454.203125 1.550781 449.523438 6.109375 C 446.925781 8.640625 443.65625 10.714844 439.710938 12.335938 C 434.84375 14.332031 428.265625 15.859375 419.972656 16.921875 C 405.910156 18.726562 393.375 19.628906 382.363281 19.628906 Z M 382.363281 -18.609375 C 391.746094 -18.609375 402.664062 -19.40625 415.113281 -21.003906 C 420.074219 -21.640625 423.4375 -22.316406 425.199219 -23.039062 C 424.570312 -22.78125 423.78125 -22.195312 422.839844 -21.277344 C 419.820312 -18.332031 418.308594 -14.636719 418.308594 -10.195312 L 437.425781 -10.195312 L 418.324219 -9.351562 L 403.523438 -344.214844 L 403.523438 -344.636719 C 403.523438 -340.246094 405.027344 -336.660156 408.039062 -333.882812 C 408.59375 -333.367188 409.117188 -332.976562 409.609375 -332.699219 L 409.679688 -332.660156 C 409.582031 -332.703125 409.460938 -332.753906 409.308594 -332.8125 C 406.460938 -333.890625 401.476562 -334.808594 394.355469 -335.570312 C 377.527344 -337.367188 363.164062 -338.265625 351.265625 -338.265625 C 330.535156 -338.265625 314.890625 -337.269531 304.332031 -335.28125 C 300.21875 -334.507812 297.300781 -333.6875 295.578125 -332.828125 C 295.5 -332.789062 295.4375 -332.757812 295.390625 -332.730469 C 295.390625 -332.730469 295.40625 -332.738281 295.429688 -332.753906 C 295.652344 -332.902344 295.898438 -333.105469 296.167969 -333.359375 C 297.40625 -334.535156 298.34375 -336.039062 298.976562 -337.875 L 280.910156 -344.128906 L 299.171875 -338.464844 L 232.1875 -122.476562 L 155.949219 -336.90625 C 156.722656 -334.835938 157.820312 -333.257812 159.242188 -332.171875 C 159.351562 -332.089844 159.445312 -332.023438 159.523438 -331.976562 C 159.519531 -331.976562 159.496094 -331.992188 159.453125 -332.011719 C 159.164062 -332.164062 158.773438 -332.328125 158.28125 -332.511719 C 154.851562 -333.78125 149.515625 -334.800781 142.269531 -335.566406 C 125.261719 -337.367188 110.976562 -338.265625 99.414062 -338.265625 C 79.925781 -338.265625 65.605469 -337.367188 56.457031 -335.566406 C 53.414062 -334.96875 51.535156 -334.457031 50.820312 -334.035156 C 51.804688 -334.617188 52.75 -335.53125 53.660156 -336.78125 C 55.441406 -339.238281 56.335938 -342.027344 56.335938 -345.148438 L 56.335938 -344.808594 L 44.578125 -12.703125 C 44.75 -15.757812 43.949219 -18.480469 42.183594 -20.875 C 41.421875 -21.910156 40.761719 -22.574219 40.203125 -22.871094 C 42.242188 -21.785156 46.148438 -20.820312 51.925781 -19.976562 C 58.921875 -19.066406 66.167969 -18.609375 73.667969 -18.609375 C 81.054688 -18.609375 90.566406 -19.472656 102.210938 -21.203125 C 106.289062 -21.8125 108.957031 -22.453125 110.21875 -23.136719 C 109.523438 -22.761719 108.789062 -22.078125 108.007812 -21.09375 C 106.394531 -19.058594 105.5 -16.699219 105.320312 -14.015625 L 124.394531 -12.746094 L 105.289062 -13.414062 L 112.425781 -216.835938 L 149.8125 -221.765625 L 214.378906 -11.15625 L 214.582031 -10.046875 C 213.945312 -13.542969 212.402344 -16.5 209.949219 -18.917969 C 208.816406 -20.039062 207.632812 -20.890625 206.410156 -21.46875 C 206.199219 -21.566406 206.023438 -21.640625 205.871094 -21.695312 C 205.878906 -21.691406 205.921875 -21.679688 206.003906 -21.65625 C 206.457031 -21.535156 207.066406 -21.40625 207.835938 -21.28125 C 212.402344 -20.519531 219.597656 -20.136719 229.417969 -20.136719 C 239.179688 -20.136719 246.398438 -20.550781 251.078125 -21.375 C 251.886719 -21.519531 252.542969 -21.664062 253.050781 -21.804688 L 252.972656 -21.738281 C 252.050781 -21.304688 251.128906 -20.664062 250.207031 -19.820312 C 248.246094 -18.03125 246.828125 -15.820312 245.949219 -13.183594 L 264.085938 -7.136719 L 245.777344 -12.640625 L 307.976562 -219.625 L 345.375 -215.125 L 356.109375 -10.1875 L 356.109375 -9.6875 C 356.109375 -12.546875 355.351562 -15.167969 353.835938 -17.554688 C 352.878906 -19.054688 351.773438 -20.230469 350.515625 -21.078125 C 350.277344 -21.238281 350.070312 -21.359375 349.894531 -21.449219 C 349.910156 -21.441406 349.96875 -21.417969 350.078125 -21.375 C 350.675781 -21.152344 351.492188 -20.925781 352.527344 -20.691406 C 358.707031 -19.304688 368.65625 -18.609375 382.363281 -18.609375 Z M 382.363281 -18.609375 "/></g></g></g><g fill="#141e2e" fill-opacity="1"><g transform="translate(970.748128, 1222.794475)"><g><path d="M 50.59375 -139.402344 C 56.257812 -134.929688 66.546875 -128.523438 81.46875 -120.179688 C 94.375 -112.964844 106.390625 -109.355469 117.511719 -109.355469 C 119.503906 -109.355469 121.066406 -109.503906 122.203125 -109.796875 C 122.425781 -109.855469 122.574219 -109.902344 122.644531 -109.933594 C 122.472656 -109.855469 122.269531 -109.722656 122.039062 -109.542969 C 121.246094 -108.929688 120.652344 -108.164062 120.257812 -107.242188 C 120.144531 -106.980469 120.074219 -106.757812 120.039062 -106.578125 C 120.054688 -106.660156 120.0625 -106.824219 120.0625 -107.0625 C 120.0625 -106.859375 120.121094 -106.632812 120.234375 -106.378906 C 120.261719 -106.316406 120.277344 -106.285156 120.277344 -106.285156 C 120.183594 -106.417969 120.035156 -106.578125 119.835938 -106.769531 C 117.269531 -109.226562 111.496094 -112.5625 102.515625 -116.773438 C 91.351562 -122.003906 82.910156 -126.140625 77.191406 -129.179688 C 70.929688 -132.507812 62.917969 -137.757812 53.160156 -144.941406 C 42.347656 -152.898438 33.941406 -161.378906 27.9375 -170.382812 L 43.84375 -180.984375 L 28.195312 -170.003906 C 12.289062 -192.671875 4.332031 -220.976562 4.332031 -254.910156 C 4.332031 -290.398438 17.511719 -320.316406 43.871094 -344.664062 C 69.796875 -368.609375 103.265625 -380.582031 144.277344 -380.582031 C 170.34375 -380.582031 194.515625 -377.75 216.792969 -372.089844 C 229.167969 -368.945312 238.90625 -365.089844 246.003906 -360.527344 C 256.664062 -353.675781 262.417969 -344.976562 263.261719 -334.4375 L 263.320312 -333.675781 L 263.320312 -329.855469 C 263.320312 -315.4375 259.105469 -297.976562 250.667969 -277.464844 C 246.710938 -267.839844 243.285156 -260.246094 240.382812 -254.679688 C 236.238281 -246.722656 232.039062 -241.328125 227.789062 -238.492188 L 218.425781 -232.25 L 208.421875 -237.40625 C 189.417969 -247.207031 172.878906 -252.105469 158.808594 -252.105469 C 156.011719 -252.105469 153.730469 -251.894531 151.964844 -251.476562 C 151.417969 -251.347656 150.976562 -251.210938 150.636719 -251.066406 L 150.597656 -251.066406 C 151.179688 -251.484375 151.644531 -252.0625 151.992188 -252.800781 C 152.105469 -253.046875 152.175781 -253.25 152.210938 -253.414062 C 152.191406 -253.316406 152.179688 -253.136719 152.179688 -252.871094 C 152.179688 -253.714844 152.023438 -254.492188 151.703125 -255.207031 C 151.617188 -255.398438 151.535156 -255.554688 151.457031 -255.667969 C 151.480469 -255.632812 151.546875 -255.558594 151.648438 -255.449219 C 153.101562 -253.917969 155.855469 -252.222656 159.910156 -250.359375 L 160.195312 -250.230469 L 160.476562 -250.085938 C 163.042969 -248.804688 166.792969 -247.011719 171.738281 -244.703125 C 176.933594 -242.28125 182.890625 -239.429688 189.613281 -236.15625 C 196.925781 -232.59375 204.722656 -228.140625 213.011719 -222.800781 C 221.585938 -217.277344 230.699219 -210.058594 240.347656 -201.152344 C 262.460938 -180.289062 273.519531 -153.175781 273.519531 -119.808594 C 273.519531 -78.683594 261.933594 -44.765625 238.761719 -18.058594 C 214.980469 9.351562 179.339844 23.441406 131.84375 24.214844 C 109.945312 24.214844 90.113281 22.386719 72.355469 18.722656 C 52.851562 14.703125 35.78125 6.796875 21.144531 -4.996094 C 4.160156 -18.675781 -4.332031 -35.535156 -4.332031 -55.570312 C -4.332031 -71.789062 -1.386719 -87.851562 4.503906 -103.761719 C 10.882812 -120.984375 18.425781 -132.925781 27.132812 -139.582031 L 38.933594 -148.605469 Z M 26.898438 -109.390625 L 38.746094 -124.394531 L 50.359375 -109.210938 C 49.414062 -108.484375 48.207031 -106.898438 46.742188 -104.449219 C 44.628906 -100.914062 42.5 -96.257812 40.359375 -90.480469 C 36.054688 -78.859375 33.902344 -67.222656 33.902344 -55.570312 C 33.902344 -47.734375 37.644531 -40.800781 45.132812 -34.769531 C 54.964844 -26.847656 66.613281 -21.5 80.078125 -18.722656 C 95.289062 -15.589844 112.335938 -14.019531 131.222656 -14.019531 C 167.335938 -14.605469 193.558594 -24.304688 209.878906 -43.117188 C 226.816406 -62.636719 235.28125 -88.199219 235.28125 -119.808594 C 235.28125 -142.179688 228.324219 -159.929688 214.414062 -173.054688 C 206.386719 -180.464844 199.015625 -186.332031 192.296875 -190.660156 C 185.289062 -195.179688 178.8125 -198.882812 172.867188 -201.78125 C 166.335938 -204.960938 160.570312 -207.722656 155.566406 -210.054688 C 150.3125 -212.507812 146.25 -214.453125 143.375 -215.886719 L 151.925781 -232.988281 L 143.945312 -215.617188 C 123.945312 -224.804688 113.945312 -237.222656 113.945312 -252.871094 C 113.945312 -258.761719 115.082031 -264.136719 117.355469 -269 C 119.84375 -274.328125 123.527344 -278.730469 128.402344 -282.203125 C 136.011719 -287.628906 146.148438 -290.34375 158.808594 -290.34375 C 179.066406 -290.34375 201.445312 -284.027344 225.945312 -271.390625 L 217.183594 -254.398438 L 206.578125 -270.308594 C 205.597656 -269.65625 204.789062 -268.96875 204.152344 -268.253906 L 204.121094 -268.25 C 204.726562 -269.136719 205.511719 -270.5 206.472656 -272.347656 C 208.84375 -276.894531 211.785156 -283.445312 215.304688 -292.003906 C 221.824219 -307.859375 225.085938 -320.476562 225.085938 -329.855469 L 225.085938 -332.914062 L 244.203125 -332.914062 L 225.144531 -331.386719 C 225.265625 -329.875 225.703125 -328.617188 226.449219 -327.605469 L 226.511719 -327.5 C 226.226562 -327.75 225.832031 -328.039062 225.324219 -328.363281 C 221.714844 -330.683594 215.734375 -332.90625 207.375 -335.03125 C 188.1875 -339.90625 167.15625 -342.34375 144.277344 -342.34375 C 113.238281 -342.34375 88.417969 -333.753906 69.816406 -316.574219 C 51.652344 -299.796875 42.570312 -279.242188 42.570312 -254.910156 C 42.570312 -229.027344 48.210938 -208.046875 59.492188 -191.96875 L 59.625 -191.78125 L 59.75 -191.589844 C 63.265625 -186.320312 68.625 -181.035156 75.824219 -175.738281 C 84.078125 -169.660156 90.515625 -165.398438 95.128906 -162.945312 C 100.285156 -160.207031 108.15625 -156.355469 118.746094 -151.394531 C 131.519531 -145.40625 140.699219 -139.734375 146.292969 -134.375 C 154.296875 -126.703125 158.300781 -117.597656 158.300781 -107.0625 C 158.300781 -95.214844 154.027344 -85.972656 145.488281 -79.34375 C 138.429688 -73.859375 129.101562 -71.121094 117.511719 -71.121094 C 99.746094 -71.121094 81.511719 -76.347656 62.808594 -86.804688 C 46.121094 -96.136719 34.152344 -103.664062 26.898438 -109.390625 Z M 26.898438 -109.390625 "/></g></g></g><g fill="#5c9cee" fill-opacity="1"><g transform="translate(279.433603, 1222.794475)"><g><path d="M 38.75 -124.390625 C 45.207031 -119.296875 56.335938 -112.328125 72.140625 -103.484375 C 87.941406 -94.648438 103.0625 -90.234375 117.5 -90.234375 C 131.945312 -90.234375 139.171875 -95.84375 139.171875 -107.0625 C 139.171875 -112.15625 137.128906 -116.65625 133.046875 -120.5625 C 128.972656 -124.476562 121.5 -128.984375 110.625 -134.078125 C 99.75 -139.179688 91.59375 -143.175781 86.15625 -146.0625 C 80.71875 -148.945312 73.492188 -153.703125 64.484375 -160.328125 C 55.484375 -166.960938 48.601562 -173.847656 43.84375 -180.984375 C 30.25 -200.359375 23.453125 -225 23.453125 -254.90625 C 23.453125 -284.8125 34.582031 -310.046875 56.84375 -330.609375 C 79.101562 -351.171875 108.25 -361.453125 144.28125 -361.453125 C 168.75 -361.453125 191.347656 -358.816406 212.078125 -353.546875 C 232.816406 -348.285156 243.523438 -341.40625 244.203125 -332.90625 C 244.203125 -331.882812 244.203125 -330.863281 244.203125 -329.84375 C 244.203125 -317.945312 240.460938 -302.90625 232.984375 -284.71875 C 225.503906 -266.539062 220.238281 -256.429688 217.1875 -254.390625 C 195.425781 -265.609375 175.960938 -271.21875 158.796875 -271.21875 C 141.640625 -271.21875 133.0625 -265.097656 133.0625 -252.859375 C 133.0625 -245.390625 139.347656 -238.765625 151.921875 -232.984375 C 154.640625 -231.617188 158.546875 -229.75 163.640625 -227.375 C 168.742188 -225 174.609375 -222.195312 181.234375 -218.96875 C 187.867188 -215.738281 195.007812 -211.660156 202.65625 -206.734375 C 210.300781 -201.804688 218.539062 -195.257812 227.375 -187.09375 C 245.382812 -170.101562 254.390625 -147.675781 254.390625 -119.8125 C 254.390625 -83.4375 244.363281 -53.691406 224.3125 -30.578125 C 204.257812 -7.472656 173.332031 4.414062 131.53125 5.09375 C 111.132812 5.09375 92.691406 3.394531 76.203125 0 C 59.722656 -3.394531 45.363281 -10.019531 33.125 -19.875 C 20.894531 -29.738281 14.78125 -41.632812 14.78125 -55.5625 C 14.78125 -69.5 17.328125 -83.347656 22.421875 -97.109375 C 27.523438 -110.878906 32.96875 -119.972656 38.75 -124.390625 Z M 38.75 -124.390625 "/></g></g></g><g fill="#5c9cee" fill-opacity="1"><g transform="translate(529.244901, 1222.794475)"><g><path d="M 382.359375 0.515625 C 352.109375 0.515625 336.984375 -2.882812 336.984375 -9.6875 L 326.28125 -214.125 L 264.078125 -7.140625 C 262.722656 -3.054688 251.164062 -1.015625 229.40625 -1.015625 C 207.65625 -1.015625 196.441406 -2.882812 195.765625 -6.625 L 131.53125 -216.15625 L 124.390625 -12.75 C 124.054688 -7.644531 117.597656 -4.15625 105.015625 -2.28125 C 92.441406 -0.414062 81.988281 0.515625 73.65625 0.515625 C 65.332031 0.515625 57.265625 0.00390625 49.453125 -1.015625 C 33.140625 -3.398438 25.148438 -7.648438 25.484375 -13.765625 L 37.21875 -345.140625 C 37.21875 -353.296875 57.945312 -357.375 99.40625 -357.375 C 111.644531 -357.375 126.597656 -356.4375 144.265625 -354.5625 C 161.941406 -352.695312 171.800781 -349.046875 173.84375 -343.609375 L 230.9375 -183.015625 L 280.90625 -344.125 C 283.96875 -352.957031 307.421875 -357.375 351.265625 -357.375 C 363.835938 -357.375 378.875 -356.4375 396.375 -354.5625 C 413.882812 -352.695312 422.640625 -349.390625 422.640625 -344.640625 L 437.421875 -10.203125 C 437.421875 -6.460938 430.789062 -3.738281 417.53125 -2.03125 C 404.28125 -0.332031 392.554688 0.515625 382.359375 0.515625 Z M 382.359375 0.515625 "/></g></g></g><g fill="#5c9cee" fill-opacity="1"><g transform="translate(970.748128, 1222.794475)"><g><path d="M 38.75 -124.390625 C 45.207031 -119.296875 56.335938 -112.328125 72.140625 -103.484375 C 87.941406 -94.648438 103.0625 -90.234375 117.5 -90.234375 C 131.945312 -90.234375 139.171875 -95.84375 139.171875 -107.0625 C 139.171875 -112.15625 137.128906 -116.65625 133.046875 -120.5625 C 128.972656 -124.476562 121.5 -128.984375 110.625 -134.078125 C 99.75 -139.179688 91.59375 -143.175781 86.15625 -146.0625 C 80.71875 -148.945312 73.492188 -153.703125 64.484375 -160.328125 C 55.484375 -166.960938 48.601562 -173.847656 43.84375 -180.984375 C 30.25 -200.359375 23.453125 -225 23.453125 -254.90625 C 23.453125 -284.8125 34.582031 -310.046875 56.84375 -330.609375 C 79.101562 -351.171875 108.25 -361.453125 144.28125 -361.453125 C 168.75 -361.453125 191.347656 -358.816406 212.078125 -353.546875 C 232.816406 -348.285156 243.523438 -341.40625 244.203125 -332.90625 C 244.203125 -331.882812 244.203125 -330.863281 244.203125 -329.84375 C 244.203125 -317.945312 240.460938 -302.90625 232.984375 -284.71875 C 225.503906 -266.539062 220.238281 -256.429688 217.1875 -254.390625 C 195.425781 -265.609375 175.960938 -271.21875 158.796875 -271.21875 C 141.640625 -271.21875 133.0625 -265.097656 133.0625 -252.859375 C 133.0625 -245.390625 139.347656 -238.765625 151.921875 -232.984375 C 154.640625 -231.617188 158.546875 -229.75 163.640625 -227.375 C 168.742188 -225 174.609375 -222.195312 181.234375 -218.96875 C 187.867188 -215.738281 195.007812 -211.660156 202.65625 -206.734375 C 210.300781 -201.804688 218.539062 -195.257812 227.375 -187.09375 C 245.382812 -170.101562 254.390625 -147.675781 254.390625 -119.8125 C 254.390625 -83.4375 244.363281 -53.691406 224.3125 -30.578125 C 204.257812 -7.472656 173.332031 4.414062 131.53125 5.09375 C 111.132812 5.09375 92.691406 3.394531 76.203125 0 C 59.722656 -3.394531 45.363281 -10.019531 33.125 -19.875 C 20.894531 -29.738281 14.78125 -41.632812 14.78125 -55.5625 C 14.78125 -69.5 17.328125 -83.347656 22.421875 -97.109375 C 27.523438 -110.878906 32.96875 -119.972656 38.75 -124.390625 Z M 38.75 -124.390625 "/></g></g></g></svg>